<svg id="svg" version="1.1" width="400" height="400" viewBox="0 0 400 400" xmlns="http://www.w3.org/2000/svg" xmlns:xlink="http://www.w3.org/1999/xlink" ><g id="svgg"><path id="path0" d="M49.629 39.054 C 49.173 39.634,48.800 39.874,48.800 39.587 C 48.800 39.301,48.694 39.173,48.563 39.303 C 48.433 39.433,48.518 39.868,48.751 40.270 C 48.985 40.671,49.181 40.800,49.188 40.555 C 49.195 40.310,49.675 39.635,50.255 39.055 C 50.835 38.475,51.118 38.000,50.884 38.000 C 50.650 38.000,50.085 38.474,49.629 39.054 M43.027 43.170 C 42.365 43.901,42.365 43.934,43.032 43.836 C 43.418 43.780,43.778 43.433,43.831 43.067 C 43.956 42.220,43.878 42.230,43.027 43.170 M357.453 44.094 C 357.560 44.812,357.702 45.912,357.768 46.538 C 357.930 48.078,359.149 49.524,359.637 48.754 C 359.958 48.247,360.171 48.543,360.042 49.317 C 360.012 49.492,360.339 49.447,360.768 49.217 C 361.751 48.691,362.000 48.692,362.000 49.224 C 362.000 49.457,361.792 49.519,361.538 49.362 C 361.250 49.184,361.185 49.252,361.366 49.545 C 361.525 49.802,361.823 49.910,362.027 49.783 C 362.232 49.657,362.354 49.969,362.299 50.477 C 362.234 51.084,362.388 51.360,362.750 51.283 C 363.140 51.201,363.243 51.463,363.105 52.183 C 362.974 52.870,363.088 53.200,363.455 53.200 C 363.770 53.200,364.000 52.777,364.000 52.200 C 364.000 51.650,363.817 51.200,363.592 51.200 C 363.368 51.200,363.287 50.791,363.413 50.289 C 363.738 48.997,362.215 47.689,360.200 47.528 C 358.625 47.402,358.598 47.373,358.477 45.691 C 358.395 44.562,358.202 44.075,357.909 44.257 C 357.622 44.433,357.553 44.299,357.715 43.878 C 357.852 43.519,357.806 43.127,357.611 43.007 C 357.416 42.886,357.345 43.376,357.453 44.094 M39.800 48.400 C 40.240 48.589,40.870 48.744,41.200 48.744 C 41.578 48.744,41.504 48.617,41.000 48.400 C 40.560 48.211,39.930 48.056,39.600 48.056 C 39.222 48.056,39.296 48.183,39.800 48.400 M37.680 48.880 C 37.416 49.144,37.200 49.538,37.200 49.756 C 37.200 49.975,37.470 49.804,37.801 49.376 C 38.353 48.663,38.381 48.660,38.143 49.340 C 37.911 50.003,37.971 50.025,38.726 49.553 C 39.328 49.178,39.430 48.940,39.084 48.720 C 38.425 48.301,38.237 48.323,37.680 48.880 M36.962 50.933 C 37.093 51.336,37.215 51.966,37.234 52.333 C 37.253 52.700,37.427 52.469,37.621 51.820 C 37.815 51.171,37.889 50.556,37.787 50.453 C 37.684 50.351,37.597 50.522,37.594 50.833 C 37.589 51.302,37.513 51.296,37.156 50.800 C 36.797 50.301,36.765 50.323,36.962 50.933 M363.613 195.749 C 363.578 331.184,363.490 341.963,362.407 343.988 C 361.946 344.847,360.023 346.000,359.048 346.000 C 358.677 346.000,358.224 346.801,357.832 348.148 C 357.112 350.626,356.515 351.243,354.286 351.810 C 352.591 352.241,352.355 352.493,351.397 354.884 C 350.896 356.135,350.503 356.459,348.901 356.947 C 345.682 357.928,344.144 358.720,343.473 359.745 C 342.044 361.925,350.768 361.800,200.200 361.800 C 45.923 361.800,58.929 362.012,56.923 359.467 C 56.525 358.963,55.210 358.221,54.000 357.818 C 48.907 356.124,49.036 356.203,48.699 354.579 C 48.281 352.568,47.872 352.146,46.061 351.856 C 44.094 351.542,42.978 350.549,42.624 348.800 C 42.082 346.126,41.997 346.009,40.392 345.752 C 36.504 345.131,36.813 357.363,36.748 201.460 C 36.717 125.307,36.610 61.986,36.511 60.746 L 36.331 58.491 34.809 59.089 C 31.083 60.553,31.237 54.253,31.234 205.800 C 31.230 356.024,31.107 350.825,34.757 354.566 C 35.905 355.743,36.600 356.983,37.240 359.000 C 38.215 362.069,39.165 363.404,40.635 363.773 C 41.238 363.924,41.814 364.537,42.183 365.421 C 42.971 367.306,43.722 367.993,45.505 368.454 C 48.268 369.170,49.235 369.706,49.828 370.854 C 51.093 373.300,55.439 374.492,65.176 375.062 C 69.410 375.309,69.888 375.422,71.576 376.565 L 73.400 377.800 200.200 377.800 L 327.000 377.800 328.820 376.568 C 330.607 375.358,330.772 375.327,338.020 374.880 C 347.697 374.283,351.200 373.140,351.200 370.581 C 351.200 369.781,351.507 369.591,353.500 369.163 C 357.909 368.215,363.248 363.668,363.802 360.389 C 363.992 359.264,364.444 358.557,365.474 357.771 C 367.141 356.499,367.859 354.936,368.631 350.903 C 369.462 346.563,369.445 67.504,368.614 62.600 C 367.729 57.378,366.161 54.800,363.870 54.800 C 363.748 54.800,363.632 118.227,363.613 195.749 M197.800 134.252 C 195.820 134.325,190.150 134.653,185.200 134.981 C 180.250 135.310,173.573 135.538,170.362 135.489 C 163.323 135.382,163.363 135.361,163.001 139.322 C 162.396 145.960,163.919 170.201,165.230 174.800 C 166.727 180.049,167.180 186.243,167.192 201.631 C 167.196 207.697,167.379 214.537,167.597 216.831 C 167.815 219.124,168.172 225.156,168.390 230.235 C 168.865 241.326,169.342 244.861,170.887 248.738 C 171.813 251.064,172.134 252.685,172.424 256.512 C 173.105 265.480,173.623 266.400,177.986 266.400 C 180.449 266.400,180.695 266.316,181.742 265.123 L 182.862 263.847 182.613 257.623 C 182.183 246.865,181.596 241.229,180.569 238.000 C 179.577 234.877,179.192 232.563,178.195 223.717 C 177.104 214.034,177.385 211.181,179.697 208.444 C 181.416 206.410,181.772 206.354,198.000 205.566 C 208.397 205.061,214.192 204.389,214.961 203.600 C 216.103 202.427,216.226 197.539,215.139 196.525 C 213.372 194.877,206.160 194.300,201.000 195.393 C 198.996 195.818,195.578 195.988,188.975 195.993 L 179.750 196.000 178.739 194.900 C 177.056 193.070,176.826 191.781,176.395 181.800 C 175.879 169.827,174.979 158.547,174.289 155.400 C 173.620 152.347,174.855 149.970,178.162 147.944 C 179.283 147.257,180.290 146.573,180.400 146.424 C 180.638 146.102,184.286 145.421,191.400 144.371 C 197.329 143.496,231.838 143.211,236.011 144.002 C 238.722 144.516,242.178 146.147,242.978 147.290 C 244.225 149.070,243.828 153.609,242.299 155.051 C 241.479 155.825,240.806 156.998,240.476 158.230 C 239.920 160.309,237.759 164.400,237.216 164.400 C 236.589 164.400,235.600 167.139,235.606 168.860 C 235.614 171.150,235.909 171.531,238.207 172.222 C 239.271 172.542,240.466 173.098,240.862 173.456 C 241.536 174.066,241.684 174.020,243.118 172.754 C 245.248 170.876,246.921 169.600,247.256 169.600 C 247.572 169.600,248.114 168.076,248.977 164.758 C 249.712 161.931,251.059 159.837,252.589 159.141 C 253.243 158.843,253.873 158.209,253.989 157.731 C 254.294 156.477,256.889 154.573,259.029 154.034 C 260.086 153.768,261.326 153.091,261.936 152.446 C 264.783 149.439,268.462 148.692,279.503 148.881 C 289.516 149.053,291.664 149.547,294.584 152.350 C 295.473 153.203,296.650 154.007,297.200 154.137 C 298.570 154.460,301.200 156.703,301.200 157.548 C 301.200 158.283,301.952 159.389,303.651 161.151 C 306.686 164.298,308.108 174.560,306.653 182.813 C 306.002 186.505,305.780 186.928,303.277 189.255 C 302.180 190.276,301.164 191.482,301.020 191.936 C 300.695 192.961,298.219 195.477,297.224 195.792 C 296.818 195.921,296.248 196.606,295.956 197.313 C 295.241 199.050,293.240 201.200,292.338 201.200 C 291.861 201.200,291.311 201.824,290.767 202.980 C 289.781 205.079,288.239 206.725,286.957 207.047 C 286.321 207.206,285.682 208.032,284.873 209.738 C 284.232 211.092,283.017 212.962,282.174 213.894 C 280.418 215.835,280.051 216.983,278.568 225.200 C 277.062 233.537,277.054 241.665,278.548 244.674 C 280.347 248.299,280.441 252.558,278.787 255.470 C 275.490 261.273,277.698 266.350,283.533 266.383 C 289.246 266.416,291.158 261.836,287.995 255.695 C 287.119 253.993,286.401 252.285,286.401 251.900 C 286.400 251.515,286.261 251.200,286.092 251.200 C 285.922 251.200,285.337 250.374,284.792 249.364 L 283.800 247.528 285.057 246.464 C 287.079 244.752,287.474 243.227,287.774 235.968 C 288.124 227.496,288.516 225.632,290.634 222.392 C 291.572 220.958,292.726 218.798,293.200 217.592 C 293.673 216.386,294.384 215.040,294.780 214.600 C 295.176 214.160,295.709 213.395,295.964 212.900 C 296.219 212.405,296.626 212.000,296.868 212.000 C 297.430 212.000,300.956 208.425,301.310 207.494 C 301.458 207.106,302.037 206.614,302.597 206.401 C 303.157 206.188,303.771 205.602,303.962 205.099 C 304.154 204.595,304.767 203.939,305.325 203.640 C 305.883 203.342,306.435 202.716,306.553 202.249 C 306.670 201.782,307.178 201.220,307.682 201.000 C 308.185 200.780,308.830 200.150,309.116 199.600 C 310.661 196.627,312.744 193.788,313.458 193.682 C 314.296 193.557,316.590 187.329,317.632 182.352 C 318.785 176.845,315.719 156.400,313.740 156.400 C 313.234 156.400,311.200 153.997,311.200 153.400 C 311.200 153.222,310.750 152.486,310.200 151.764 C 309.650 151.043,309.200 150.246,309.200 149.992 C 309.200 149.427,305.577 146.038,304.949 146.016 C 304.701 146.007,304.265 145.720,303.981 145.377 C 303.696 145.034,302.840 144.493,302.078 144.175 C 301.316 143.856,299.996 142.967,299.145 142.198 C 298.062 141.219,297.208 140.796,296.299 140.785 C 295.584 140.777,293.020 140.232,290.600 139.573 C 288.180 138.913,285.548 138.228,284.750 138.050 C 283.953 137.872,282.755 137.337,282.088 136.863 C 280.295 135.586,276.262 135.651,273.600 137.000 C 272.515 137.550,271.294 138.000,270.888 138.000 C 270.482 138.000,269.441 138.336,268.575 138.746 C 265.488 140.207,261.237 140.982,256.428 140.961 L 251.855 140.941 250.329 139.170 C 249.489 138.197,248.802 137.096,248.801 136.724 C 248.800 135.751,248.518 135.653,243.727 134.957 C 239.558 134.352,208.183 133.870,197.800 134.252 M85.485 135.706 C 83.823 136.967,83.417 144.711,84.610 152.400 C 84.729 153.170,85.083 160.370,85.395 168.400 C 85.920 181.860,86.040 183.238,86.934 186.046 C 87.654 188.306,87.976 190.474,88.182 194.446 C 88.335 197.391,88.710 202.770,89.016 206.400 C 89.321 210.030,89.856 219.030,90.203 226.400 C 90.967 242.580,91.714 251.127,92.740 255.400 C 93.163 257.160,93.734 259.726,94.010 261.102 C 94.285 262.479,94.846 263.991,95.255 264.464 C 95.665 264.936,96.000 265.469,96.000 265.647 C 96.000 267.022,101.442 266.442,103.300 264.869 C 104.698 263.685,103.811 244.298,102.213 241.114 C 101.496 239.685,100.313 233.339,99.581 227.000 C 99.327 224.800,98.976 213.640,98.800 202.200 C 98.475 181.107,98.215 177.403,96.815 174.000 C 95.932 171.851,95.374 168.158,94.791 160.600 C 94.554 157.520,94.266 154.684,94.152 154.299 C 94.038 153.913,93.801 150.943,93.626 147.699 C 93.186 139.575,92.305 136.077,90.636 135.827 C 86.860 135.261,86.095 135.243,85.485 135.706 M128.245 135.626 C 125.803 136.030,125.743 136.094,124.885 139.224 C 124.141 141.937,124.751 149.293,125.895 151.411 C 127.280 153.976,128.019 165.490,129.255 203.798 C 130.576 244.743,130.478 243.296,132.344 249.600 C 132.783 251.084,133.808 257.726,134.243 261.900 C 134.386 263.275,134.631 264.400,134.787 264.400 C 134.944 264.400,135.277 264.850,135.527 265.400 C 136.236 266.956,141.535 266.917,142.771 265.346 C 143.810 264.025,143.935 255.349,143.022 248.000 C 142.707 245.470,142.343 240.880,142.213 237.800 C 142.082 234.720,141.718 230.940,141.403 229.400 C 139.260 218.930,138.939 215.115,138.410 193.832 C 137.247 146.977,137.163 146.023,133.672 140.400 C 133.194 139.630,132.802 138.539,132.801 137.976 C 132.798 135.826,131.401 135.105,128.245 135.626 " stroke="none" fill="#2788b5" fill-rule="evenodd"></path><path id="path1" d="M53.523 37.500 C 53.235 37.885,52.640 38.200,52.200 38.200 C 51.760 38.200,51.445 38.425,51.500 38.700 C 51.555 38.975,51.400 39.155,51.155 39.100 C 50.910 39.045,50.104 39.848,49.363 40.885 C 48.622 41.921,48.282 42.667,48.608 42.542 C 48.933 42.417,49.200 42.147,49.200 41.943 C 49.200 41.719,49.478 41.715,49.900 41.932 C 50.713 42.350,51.483 42.155,52.593 41.248 C 53.336 40.641,53.352 40.644,52.844 41.300 C 52.382 41.897,52.391 42.000,52.908 42.000 C 53.504 42.000,54.247 40.114,53.819 39.686 C 53.699 39.565,53.600 39.707,53.600 40.000 C 53.600 40.293,53.495 40.429,53.368 40.301 C 53.058 39.992,53.968 38.320,54.765 37.733 C 55.113 37.476,55.264 37.131,55.099 36.966 C 54.935 36.801,54.800 36.877,54.800 37.133 C 54.800 37.390,54.609 37.600,54.376 37.600 C 54.143 37.600,54.064 37.420,54.200 37.200 C 54.621 36.518,54.075 36.760,53.523 37.500 M345.451 37.487 C 345.837 37.769,346.286 38.000,346.449 38.000 C 346.613 38.000,346.863 38.369,347.006 38.820 C 347.441 40.191,349.564 42.103,350.406 41.882 C 350.822 41.774,351.257 41.891,351.374 42.142 C 351.490 42.394,351.542 42.240,351.487 41.800 C 351.433 41.360,351.122 40.996,350.795 40.991 C 350.466 40.986,350.250 40.686,350.311 40.321 C 350.371 39.958,350.016 39.377,349.522 39.030 C 349.027 38.684,348.814 38.400,349.049 38.400 C 349.780 38.400,350.898 39.915,350.581 40.475 C 350.340 40.900,350.387 40.903,350.827 40.495 C 351.731 39.655,349.512 37.648,348.546 38.432 C 348.155 38.750,347.973 38.789,348.134 38.520 C 348.476 37.951,347.254 37.218,346.444 37.506 C 346.120 37.621,345.999 37.526,346.153 37.276 C 346.312 37.019,346.084 36.874,345.584 36.911 C 344.806 36.970,344.797 37.008,345.451 37.487 M347.467 40.667 C 346.887 41.246,347.248 41.999,348.100 41.988 C 348.911 41.977,348.930 41.935,348.292 41.563 C 347.902 41.336,347.688 40.982,347.815 40.775 C 348.083 40.343,347.860 40.273,347.467 40.667 M352.117 42.501 C 352.218 42.775,352.503 42.955,352.750 42.900 C 352.998 42.845,353.155 42.935,353.100 43.100 C 353.045 43.265,353.180 43.445,353.400 43.500 C 354.234 43.709,353.757 42.676,352.867 42.346 C 352.181 42.093,351.982 42.134,352.117 42.501 M46.784 43.019 C 46.374 43.513,46.204 43.533,45.941 43.119 C 45.699 42.737,45.611 42.729,45.606 43.087 C 45.603 43.356,45.330 43.471,45.000 43.345 C 44.620 43.199,44.400 43.350,44.400 43.757 C 44.400 44.111,44.111 44.400,43.757 44.400 C 43.350 44.400,43.199 44.620,43.345 45.000 C 43.471 45.330,43.356 45.603,43.087 45.606 C 42.722 45.611,42.727 45.693,43.109 45.936 C 43.499 46.183,43.428 46.432,42.809 46.991 C 42.364 47.394,42.000 47.966,42.000 48.262 C 42.000 48.566,41.575 48.800,41.022 48.800 C 39.488 48.800,38.132 50.356,37.407 52.946 C 36.790 55.151,36.379 338.596,36.992 339.586 C 37.084 339.736,37.204 340.610,37.258 341.529 C 37.312 342.448,37.501 343.200,37.678 343.200 C 37.855 343.200,37.979 343.335,37.953 343.500 C 37.781 344.588,38.972 345.461,41.044 345.765 C 41.557 345.841,42.067 346.658,42.696 348.415 C 43.697 351.210,43.896 351.417,45.974 351.805 C 47.837 352.153,48.326 352.598,48.631 354.226 C 48.929 355.811,49.268 356.128,51.400 356.811 C 52.280 357.092,53.567 357.565,54.260 357.861 C 54.954 358.158,55.687 358.400,55.891 358.400 C 56.094 358.400,56.689 358.856,57.213 359.414 C 59.869 362.241,47.280 362.024,201.200 361.906 C 353.498 361.789,341.250 362.002,343.400 359.433 C 343.881 358.859,345.533 358.019,347.541 357.329 C 350.680 356.250,350.912 356.090,351.395 354.686 C 352.112 352.600,352.559 352.171,354.624 351.593 C 356.537 351.058,357.022 350.480,357.810 347.800 C 358.180 346.538,358.551 346.110,359.561 345.773 C 361.912 344.989,362.680 343.704,363.155 339.757 C 363.738 334.913,363.831 53.477,363.250 53.283 C 363.027 53.209,362.948 52.880,363.074 52.553 C 363.280 52.016,362.114 48.800,361.713 48.800 C 361.622 48.800,361.197 48.988,360.768 49.217 C 360.339 49.447,360.012 49.492,360.042 49.317 C 360.170 48.551,359.960 48.244,359.646 48.739 C 359.216 49.417,357.548 47.800,357.854 47.003 C 357.962 46.723,357.778 45.842,357.445 45.047 C 356.904 43.750,356.622 43.517,355.745 43.634 C 355.604 43.653,355.334 43.428,355.145 43.134 C 354.688 42.427,353.980 43.429,354.275 44.364 C 354.394 44.742,354.338 44.838,354.138 44.600 C 353.527 43.876,352.800 43.985,352.800 44.800 C 352.800 45.285,353.076 45.611,353.500 45.628 C 354.145 45.654,354.143 45.679,353.474 45.943 C 352.581 46.295,353.492 47.289,355.181 47.805 C 356.879 48.325,357.858 49.990,357.821 52.300 C 357.809 53.015,357.935 53.600,358.100 53.600 C 358.265 53.600,358.364 53.735,358.321 53.900 C 358.156 54.522,358.854 55.935,359.436 56.158 C 359.769 56.286,359.943 56.232,359.823 56.037 C 359.703 55.843,359.864 55.584,360.182 55.462 C 360.562 55.317,360.685 55.434,360.543 55.804 C 360.391 56.201,360.568 56.322,361.140 56.212 C 361.692 56.105,361.888 56.226,361.750 56.587 C 361.637 56.880,361.730 57.233,361.955 57.372 C 362.181 57.512,362.278 57.853,362.171 58.131 C 361.656 59.473,361.532 79.191,361.269 201.200 C 361.113 273.470,360.844 333.050,360.671 333.600 C 360.498 334.150,360.304 334.983,360.239 335.452 C 360.174 335.921,359.778 336.672,359.360 337.122 C 358.685 337.849,357.418 340.550,356.017 344.251 C 355.208 346.390,348.079 352.727,344.432 354.551 C 340.591 356.472,343.573 356.436,197.800 356.315 C 55.254 356.197,57.549 356.221,56.400 354.826 C 56.290 354.693,55.750 354.361,55.200 354.089 C 54.650 353.817,52.591 352.339,50.624 350.805 C 48.658 349.271,46.933 347.968,46.790 347.908 C 46.340 347.720,43.602 343.535,43.550 342.955 C 43.523 342.650,43.463 342.265,43.417 342.100 C 43.372 341.935,43.200 341.260,43.035 340.600 C 42.521 338.543,41.859 337.017,41.296 336.589 C 40.998 336.363,40.682 335.329,40.593 334.293 C 40.505 333.256,40.245 332.058,40.016 331.630 C 39.731 331.097,39.593 290.719,39.579 202.926 C 39.563 105.631,39.443 74.282,39.079 72.000 C 38.815 70.350,38.600 67.966,38.600 66.701 C 38.600 65.437,38.465 64.402,38.299 64.401 C 38.134 64.401,38.025 63.365,38.058 62.100 C 38.130 59.341,37.664 57.113,37.089 57.468 C 36.851 57.616,36.797 57.528,36.962 57.262 C 37.119 57.008,37.496 56.800,37.800 56.800 C 38.104 56.800,38.481 56.592,38.638 56.338 C 38.830 56.028,38.740 55.983,38.362 56.202 C 38.053 56.382,37.933 56.381,38.097 56.201 C 38.260 56.021,38.189 55.628,37.940 55.327 C 37.690 55.027,37.602 54.665,37.743 54.524 C 37.884 54.382,38.000 54.471,38.000 54.721 C 38.000 54.972,38.312 55.074,38.700 54.950 C 39.291 54.760,39.306 54.792,38.800 55.156 C 38.470 55.394,38.389 55.591,38.620 55.594 C 38.851 55.597,39.211 55.440,39.420 55.245 C 40.143 54.569,41.733 54.257,41.391 54.857 C 41.146 55.289,41.190 55.300,41.610 54.911 C 41.900 54.642,42.195 53.382,42.266 52.111 C 42.441 48.947,42.574 48.359,43.232 47.843 C 43.544 47.598,43.851 47.128,43.914 46.799 C 44.077 45.944,46.748 43.521,47.212 43.807 C 47.425 43.939,47.600 43.677,47.600 43.224 C 47.600 42.237,47.462 42.203,46.784 43.019 M46.972 44.755 C 47.092 44.950,46.820 45.206,46.366 45.325 C 45.912 45.444,45.444 45.912,45.325 46.366 C 45.206 46.820,44.950 47.092,44.755 46.972 C 44.560 46.851,44.400 46.943,44.400 47.176 C 44.400 47.722,45.076 47.725,45.412 47.181 C 45.592 46.889,45.827 46.890,46.183 47.186 C 46.872 47.758,47.789 46.749,47.156 46.116 C 46.855 45.815,46.858 45.611,47.165 45.422 C 47.722 45.077,47.729 44.400,47.176 44.400 C 46.943 44.400,46.851 44.560,46.972 44.755 " stroke="none" fill="#aabcc5" fill-rule="evenodd"></path><path id="path2" d="M55.200 36.981 C 55.200 37.300,54.956 37.704,54.658 37.880 C 53.971 38.286,53.060 39.994,53.368 40.301 C 53.495 40.429,53.600 40.293,53.600 40.000 C 53.600 39.707,53.699 39.565,53.819 39.686 C 54.247 40.114,53.504 42.000,52.908 42.000 C 52.391 42.000,52.382 41.897,52.844 41.300 C 53.352 40.644,53.336 40.641,52.593 41.248 C 51.483 42.155,50.713 42.350,49.900 41.932 C 49.478 41.715,49.200 41.719,49.200 41.943 C 49.200 42.147,48.895 42.431,48.522 42.574 C 47.893 42.816,47.894 42.781,48.532 42.075 C 48.955 41.608,49.118 41.024,48.956 40.558 C 48.703 39.831,48.716 39.830,49.260 40.527 C 49.803 41.221,49.863 41.212,50.614 40.327 L 51.400 39.400 50.500 40.162 C 50.005 40.581,49.600 40.744,49.600 40.524 C 49.600 39.910,51.026 38.759,51.366 39.099 C 51.531 39.265,51.630 39.220,51.586 39.000 C 51.407 38.112,51.631 37.600,52.200 37.600 C 52.530 37.600,52.805 37.825,52.812 38.100 C 52.819 38.375,53.015 38.271,53.249 37.870 C 53.887 36.772,53.513 36.703,51.167 37.486 C 49.133 38.165,49.007 38.289,48.597 40.000 C 48.231 41.529,48.003 41.819,47.083 41.927 C 46.292 42.019,46.000 42.278,46.000 42.889 C 46.000 43.699,46.024 43.702,46.800 43.000 C 47.577 42.297,47.600 42.301,47.600 43.162 C 47.600 43.649,47.425 43.939,47.212 43.807 C 46.748 43.521,44.077 45.944,43.914 46.799 C 43.851 47.128,43.544 47.598,43.232 47.843 C 42.574 48.359,42.441 48.947,42.266 52.111 C 42.195 53.382,41.900 54.642,41.610 54.911 C 41.190 55.300,41.146 55.289,41.391 54.857 C 41.733 54.257,40.143 54.569,39.420 55.245 C 39.211 55.440,38.851 55.597,38.620 55.594 C 38.389 55.591,38.470 55.394,38.800 55.156 C 39.306 54.792,39.291 54.760,38.700 54.950 C 38.312 55.074,38.000 54.972,38.000 54.721 C 38.000 54.471,37.884 54.382,37.743 54.524 C 37.602 54.665,37.690 55.027,37.940 55.327 C 38.189 55.628,38.260 56.021,38.097 56.201 C 37.933 56.381,38.053 56.382,38.362 56.202 C 38.740 55.983,38.830 56.028,38.638 56.338 C 38.481 56.592,38.104 56.800,37.800 56.800 C 37.496 56.800,37.119 57.008,36.962 57.262 C 36.797 57.528,36.851 57.616,37.089 57.468 C 37.664 57.113,38.130 59.341,38.058 62.100 C 38.025 63.365,38.134 64.401,38.299 64.401 C 38.465 64.402,38.600 65.437,38.600 66.701 C 38.600 67.966,38.815 70.350,39.079 72.000 C 39.443 74.282,39.563 105.631,39.579 202.926 C 39.593 290.719,39.731 331.097,40.016 331.630 C 40.245 332.058,40.505 333.256,40.593 334.293 C 40.682 335.329,40.998 336.363,41.296 336.589 C 41.859 337.017,42.521 338.543,43.035 340.600 C 43.200 341.260,43.372 341.935,43.417 342.100 C 43.463 342.265,43.523 342.650,43.550 342.955 C 43.602 343.535,46.340 347.720,46.790 347.908 C 46.933 347.968,48.658 349.271,50.624 350.805 C 52.591 352.339,54.650 353.817,55.200 354.089 C 55.750 354.361,56.290 354.693,56.400 354.826 C 57.549 356.221,55.254 356.197,197.800 356.315 C 343.573 356.436,340.591 356.472,344.432 354.551 C 348.079 352.727,355.208 346.390,356.017 344.251 C 357.418 340.550,358.685 337.849,359.360 337.122 C 359.778 336.672,360.174 335.921,360.239 335.452 C 360.304 334.983,360.498 334.150,360.671 333.600 C 360.844 333.050,361.113 273.470,361.269 201.200 C 361.532 79.191,361.656 59.473,362.171 58.131 C 362.278 57.853,362.181 57.512,361.955 57.372 C 361.730 57.233,361.637 56.880,361.750 56.587 C 361.888 56.226,361.692 56.105,361.140 56.212 C 360.568 56.322,360.391 56.201,360.543 55.804 C 360.685 55.434,360.562 55.317,360.182 55.462 C 359.864 55.584,359.703 55.843,359.823 56.037 C 359.943 56.232,359.769 56.286,359.436 56.158 C 358.854 55.935,358.156 54.522,358.321 53.900 C 358.364 53.735,358.265 53.600,358.100 53.600 C 357.935 53.600,357.809 53.015,357.821 52.300 C 357.858 49.990,356.879 48.325,355.181 47.805 C 353.492 47.289,352.581 46.295,353.474 45.943 C 354.143 45.679,354.145 45.654,353.500 45.628 C 353.076 45.611,352.800 45.285,352.800 44.800 C 352.800 44.030,353.548 43.859,354.035 44.518 C 354.164 44.692,354.293 44.197,354.322 43.418 C 354.370 42.162,354.262 42.000,353.388 42.000 C 352.845 42.000,352.399 41.775,352.398 41.500 C 352.392 40.239,351.499 37.974,350.875 37.640 C 349.686 37.004,347.200 36.667,347.200 37.143 C 347.200 37.381,347.463 37.474,347.784 37.351 C 348.208 37.188,348.323 37.359,348.205 37.974 C 348.115 38.440,348.183 38.734,348.356 38.627 C 348.896 38.293,350.427 39.627,350.311 40.330 C 350.233 40.801,350.467 40.986,351.100 40.952 C 352.088 40.900,352.183 41.098,351.600 42.000 C 351.383 42.336,351.210 42.396,351.206 42.137 C 351.203 41.878,350.860 41.764,350.426 41.877 C 349.564 42.103,347.448 40.211,347.006 38.820 C 346.863 38.369,346.613 38.000,346.449 38.000 C 346.286 38.000,345.804 37.717,345.376 37.370 C 344.949 37.024,344.825 36.855,345.100 36.994 C 345.375 37.133,345.600 37.057,345.600 36.824 C 345.600 36.230,344.510 36.293,344.265 36.900 C 344.106 37.293,344.056 37.294,344.032 36.904 C 343.980 36.102,55.200 36.179,55.200 36.981 M350.369 38.831 C 351.790 40.251,351.786 40.243,351.020 40.537 C 350.650 40.679,350.515 40.567,350.645 40.228 C 350.757 39.935,350.388 39.334,349.824 38.891 C 348.897 38.161,348.525 37.600,348.969 37.600 C 349.062 37.600,349.692 38.154,350.369 38.831 M50.348 38.973 C 49.833 39.507,49.335 39.869,49.242 39.775 C 49.003 39.536,50.442 38.000,50.904 38.000 C 51.113 38.000,50.863 38.438,50.348 38.973 M347.815 40.775 C 347.688 40.982,347.902 41.336,348.292 41.563 C 348.930 41.935,348.911 41.977,348.100 41.988 C 347.248 41.999,346.887 41.246,347.467 40.667 C 347.860 40.273,348.083 40.343,347.815 40.775 M353.800 43.146 C 353.800 43.396,353.620 43.555,353.400 43.500 C 353.180 43.445,353.045 43.265,353.100 43.100 C 353.155 42.935,352.998 42.845,352.750 42.900 C 352.503 42.955,352.218 42.775,352.117 42.501 C 351.982 42.134,352.181 42.093,352.867 42.346 C 353.380 42.536,353.800 42.896,353.800 43.146 M43.270 43.326 C 42.245 44.417,42.130 45.600,43.049 45.600 C 43.580 45.600,43.608 45.491,43.200 45.000 C 42.784 44.499,42.842 44.400,43.551 44.400 C 44.150 44.400,44.400 44.150,44.400 43.551 C 44.400 42.842,44.499 42.784,45.000 43.200 C 45.491 43.608,45.600 43.580,45.600 43.049 C 45.600 42.098,44.275 42.255,43.270 43.326 M355.200 42.977 C 355.200 43.347,355.500 43.496,356.037 43.393 C 356.671 43.271,356.814 43.387,356.628 43.872 C 356.413 44.431,356.470 44.441,357.066 43.957 C 357.677 43.459,357.718 43.485,357.451 44.200 C 357.205 44.861,357.244 44.908,357.676 44.472 C 358.108 44.036,358.035 43.808,357.256 43.172 C 356.138 42.258,355.200 42.170,355.200 42.977 M47.600 44.776 C 47.600 44.983,47.404 45.274,47.165 45.422 C 46.858 45.611,46.855 45.815,47.156 46.116 C 47.789 46.749,46.872 47.758,46.183 47.186 C 45.827 46.890,45.592 46.889,45.412 47.181 C 45.076 47.725,44.400 47.722,44.400 47.176 C 44.400 46.943,44.560 46.851,44.755 46.972 C 44.950 47.092,45.206 46.820,45.325 46.366 C 45.444 45.912,45.912 45.444,46.366 45.325 C 46.820 45.206,47.092 44.950,46.972 44.755 C 46.851 44.560,46.943 44.400,47.176 44.400 C 47.409 44.400,47.600 44.569,47.600 44.776 M42.000 46.862 C 42.000 47.699,42.024 47.703,42.800 47.000 C 43.240 46.602,43.600 46.214,43.600 46.138 C 43.600 46.062,43.240 46.000,42.800 46.000 C 42.247 46.000,42.000 46.267,42.000 46.862 M39.600 48.358 C 38.767 48.590,38.715 48.681,39.287 48.901 C 39.665 49.046,40.090 48.977,40.232 48.748 C 40.374 48.518,40.830 48.419,41.245 48.528 C 41.660 48.636,42.000 48.562,42.000 48.363 C 42.000 47.951,41.069 47.949,39.600 48.358 M37.380 50.187 C 36.733 51.734,36.619 53.200,37.145 53.200 C 37.334 53.200,37.398 52.723,37.287 52.141 C 37.134 51.342,37.212 51.160,37.604 51.402 C 37.951 51.617,38.027 51.566,37.831 51.251 C 37.669 50.987,37.871 50.472,38.288 50.089 C 38.700 49.710,38.771 49.580,38.444 49.800 C 37.974 50.117,37.905 50.054,38.113 49.500 C 38.603 48.192,37.962 48.793,37.380 50.187 M230.987 128.451 C 234.980 128.771,237.032 129.119,238.096 129.657 C 239.361 130.296,241.314 130.799,249.857 132.687 C 250.329 132.792,251.445 133.644,252.339 134.581 C 253.818 136.133,255.452 136.908,258.000 137.267 C 259.443 137.471,263.103 136.286,264.504 135.162 C 266.897 133.243,268.212 132.897,274.200 132.617 C 280.813 132.308,287.628 132.808,289.600 133.747 C 291.317 134.565,293.330 135.718,293.600 136.037 C 293.897 136.388,300.110 138.000,301.167 138.000 C 302.414 138.000,304.424 139.002,305.613 140.217 C 307.754 142.404,308.507 143.023,309.729 143.600 C 310.624 144.023,311.324 144.869,312.098 146.464 C 312.702 147.709,314.007 149.599,314.999 150.664 C 316.295 152.056,317.031 153.330,317.618 155.200 C 318.067 156.630,318.734 158.745,319.100 159.900 C 319.466 161.055,319.894 162.000,320.050 162.000 C 323.522 162.000,324.414 185.437,321.063 188.600 C 319.664 189.920,319.215 190.718,318.011 194.021 C 317.566 195.242,316.616 196.884,315.901 197.668 C 314.069 199.676,312.000 202.635,312.000 203.246 C 312.000 203.889,309.604 206.400,308.991 206.400 C 308.373 206.400,306.882 208.040,306.070 209.614 C 305.702 210.328,304.680 211.306,303.800 211.786 C 302.920 212.266,301.840 213.269,301.400 214.016 C 300.960 214.763,299.774 216.189,298.765 217.187 C 296.640 219.287,296.000 220.347,296.000 221.766 C 296.000 222.326,295.748 223.462,295.441 224.292 C 295.133 225.121,294.486 227.150,294.004 228.800 C 293.521 230.450,292.783 232.679,292.363 233.753 C 291.844 235.081,291.600 236.706,291.600 238.827 C 291.600 240.544,291.404 242.455,291.165 243.074 C 290.028 246.019,290.883 253.318,292.421 253.807 C 295.933 254.921,295.864 267.200,292.347 267.200 C 292.104 267.200,291.291 267.740,290.539 268.400 C 289.787 269.060,289.011 269.600,288.813 269.600 C 288.616 269.600,288.354 269.915,288.231 270.301 C 287.871 271.436,286.601 271.976,283.644 272.251 C 280.555 272.538,280.482 272.503,276.800 269.043 C 275.810 268.113,274.686 267.234,274.302 267.089 C 271.563 266.059,270.733 256.959,273.162 254.586 C 273.513 254.244,274.122 253.744,274.516 253.475 C 275.355 252.903,274.553 248.310,273.280 246.400 C 270.848 242.749,271.201 227.864,273.849 222.473 C 274.462 221.223,275.629 218.227,276.441 215.815 C 277.671 212.165,278.176 211.196,279.459 210.029 C 280.307 209.258,281.465 207.722,282.033 206.614 C 282.795 205.130,283.479 204.406,284.633 203.863 C 285.800 203.314,286.449 202.621,287.174 201.148 C 287.709 200.060,289.149 198.122,290.374 196.841 C 297.109 189.793,299.532 186.923,300.802 184.485 C 301.286 183.558,301.928 182.800,302.230 182.800 C 304.521 182.800,304.647 170.575,302.380 168.192 C 301.841 167.625,300.410 165.260,299.200 162.937 C 296.863 158.451,296.178 157.850,291.267 155.982 C 290.533 155.704,289.204 154.796,288.314 153.965 C 284.562 150.467,272.075 150.719,268.101 154.374 C 267.167 155.233,265.817 156.057,265.101 156.206 C 261.368 156.980,258.553 158.468,257.488 160.231 C 256.912 161.185,255.672 162.522,254.733 163.202 C 252.949 164.495,251.202 168.027,251.199 170.349 C 251.194 173.218,243.575 180.454,241.627 179.439 C 241.502 179.374,240.140 178.905,238.600 178.397 C 233.451 176.699,231.814 173.390,232.488 166.038 C 232.823 162.393,233.709 159.784,234.813 159.193 C 235.571 158.788,238.000 153.945,238.000 152.840 C 238.000 151.679,236.143 150.000,234.095 149.309 C 233.053 148.958,231.758 148.384,231.218 148.035 C 230.390 147.500,228.370 147.378,218.418 147.262 C 206.843 147.126,204.248 147.292,198.600 148.528 C 196.302 149.031,195.781 149.191,193.656 150.044 C 193.137 150.252,189.978 150.631,186.636 150.886 C 178.618 151.497,179.028 150.984,179.593 159.695 C 179.824 163.273,180.129 171.263,180.270 177.450 L 180.526 188.700 181.763 189.677 C 184.585 191.905,192.676 191.986,199.200 189.851 C 201.994 188.936,208.673 188.671,212.482 189.322 C 214.393 189.649,215.992 190.979,220.349 195.867 C 221.976 197.692,222.005 202.325,220.397 203.664 C 219.959 204.029,219.600 204.509,219.600 204.731 C 219.600 205.312,216.895 207.327,214.800 208.306 C 209.389 210.834,201.876 211.935,189.691 211.985 C 186.410 211.998,185.807 212.116,184.458 213.009 L 182.932 214.019 183.440 217.509 C 183.719 219.429,184.137 225.320,184.369 230.600 C 184.601 235.880,185.079 244.610,185.431 250.000 C 186.349 264.042,186.185 265.752,183.601 268.999 C 181.397 271.768,181.300 271.824,177.933 272.218 C 174.819 272.583,171.103 269.754,169.640 265.905 C 169.444 265.389,169.024 264.752,168.708 264.489 C 167.248 263.278,166.195 254.951,165.585 239.800 C 164.953 224.110,164.487 219.796,163.165 217.400 C 161.897 215.101,161.203 207.859,161.196 196.838 C 161.193 191.345,160.990 186.613,159.983 168.500 C 159.753 164.375,159.407 157.561,159.213 153.359 C 158.965 147.993,158.672 145.268,158.230 144.210 C 157.444 142.329,157.436 141.421,158.198 140.260 C 158.526 139.758,158.910 138.460,159.050 137.374 C 159.651 132.729,164.340 130.829,172.353 131.986 C 176.057 132.521,184.735 131.865,188.902 130.736 C 194.493 129.221,196.651 128.830,201.405 128.473 C 208.446 127.945,224.535 127.933,230.987 128.451 M133.946 132.694 C 134.467 132.813,135.240 133.500,135.665 134.220 C 136.089 134.940,136.707 135.632,137.037 135.759 C 139.149 136.569,140.795 144.435,140.799 153.731 C 140.800 158.550,141.570 166.615,142.198 168.394 C 143.431 171.889,144.337 183.507,144.804 201.800 C 145.006 209.720,145.357 218.450,145.584 221.200 C 145.811 223.950,146.196 231.960,146.439 239.000 C 146.683 246.040,147.058 252.970,147.272 254.400 C 148.568 263.058,147.775 266.702,143.727 270.693 C 140.406 273.966,135.180 272.919,132.656 268.473 C 132.405 268.032,131.450 266.350,130.533 264.735 C 128.186 260.605,127.731 258.298,127.233 248.000 C 126.994 243.050,126.512 235.940,126.163 232.200 C 125.813 228.460,125.368 222.735,125.173 219.478 C 124.978 216.221,124.535 210.641,124.187 207.078 C 123.562 200.667,123.144 193.691,122.412 177.400 C 122.204 172.780,121.721 164.230,121.339 158.400 C 120.957 152.570,120.644 145.273,120.644 142.185 L 120.645 136.570 121.901 134.744 C 123.459 132.480,128.437 131.166,131.800 132.132 C 132.460 132.322,133.426 132.575,133.946 132.694 M92.440 132.454 C 95.233 133.388,95.848 134.411,96.572 139.334 C 96.934 141.790,97.566 144.610,97.976 145.600 C 100.548 151.797,100.765 154.352,101.602 188.200 C 102.067 207.007,102.538 214.651,103.366 216.800 C 104.986 221.008,106.065 229.325,106.638 242.000 C 106.951 248.930,107.377 255.410,107.586 256.400 C 110.112 268.393,100.760 276.999,93.133 269.700 C 87.867 264.660,88.429 267.397,87.203 240.800 C 86.792 231.876,86.475 228.651,85.647 225.000 C 83.446 215.294,83.252 213.218,82.799 194.600 C 81.957 160.000,81.735 156.882,79.803 152.600 C 76.575 145.443,76.922 139.469,80.841 134.762 C 82.993 132.176,88.393 131.102,92.440 132.454 " stroke="none" fill="#fbfcfc" fill-rule="evenodd"></path><path id="path3" d="M206.400 131.633 C 199.924 131.987,192.471 132.541,181.916 133.454 C 176.630 133.911,174.143 133.963,172.116 133.660 C 161.267 132.036,160.018 134.203,161.325 152.385 C 161.696 157.546,162.006 163.936,162.013 166.585 C 162.020 169.233,162.294 173.200,162.622 175.400 C 163.684 182.529,164.389 192.423,164.402 200.400 C 164.415 207.880,164.570 209.569,166.197 220.000 C 166.574 222.413,167.000 228.794,167.199 235.000 C 167.474 243.602,167.717 246.573,168.393 249.600 C 168.860 251.690,169.394 254.480,169.580 255.800 C 170.452 261.978,171.945 266.082,173.970 267.867 C 176.286 269.908,181.934 268.778,183.122 266.036 C 183.369 265.466,183.792 264.700,184.063 264.333 C 184.573 263.640,184.372 259.538,182.986 242.400 C 181.523 224.315,181.523 224.312,180.238 217.200 C 179.054 210.645,180.937 209.542,194.800 208.673 C 200.749 208.300,205.465 207.809,206.800 207.424 C 208.010 207.076,210.219 206.676,211.710 206.537 C 214.125 206.311,214.615 206.112,216.210 204.708 L 218.000 203.132 218.000 200.017 C 218.000 193.527,209.854 190.030,201.069 192.748 C 198.003 193.697,185.335 194.346,182.040 193.724 C 178.568 193.068,178.355 191.891,177.569 169.000 C 177.327 161.960,177.038 155.358,176.927 154.330 C 176.650 151.776,179.474 148.800,182.172 148.800 C 184.397 148.800,191.529 147.409,193.440 146.602 C 197.289 144.979,232.616 144.903,236.438 146.510 C 240.193 148.089,241.445 151.746,239.510 155.483 C 238.736 156.977,237.995 158.650,237.864 159.200 C 237.732 159.750,237.212 160.650,236.707 161.200 C 232.134 166.180,233.175 172.533,239.066 175.594 C 242.013 177.125,242.428 177.043,245.218 174.383 C 246.362 173.292,247.459 172.400,247.657 172.400 C 247.855 172.400,248.216 171.905,248.458 171.300 C 248.701 170.695,249.048 169.840,249.230 169.400 C 249.412 168.960,250.041 167.212,250.627 165.516 C 251.337 163.462,252.014 162.221,252.654 161.801 C 253.916 160.975,256.375 158.318,256.389 157.768 C 256.395 157.530,256.805 157.144,257.300 156.911 C 260.435 155.434,263.670 154.000,263.870 154.000 C 263.999 154.000,264.951 153.392,265.985 152.649 C 270.914 149.108,287.190 149.218,291.276 152.820 C 292.004 153.462,292.748 153.990,292.928 153.994 C 293.108 153.997,294.041 154.540,295.000 155.200 C 295.959 155.860,297.018 156.400,297.353 156.400 C 297.991 156.400,299.710 158.682,301.121 161.400 C 301.578 162.280,302.412 163.523,302.976 164.162 C 303.539 164.801,304.000 165.710,304.000 166.182 C 304.000 166.654,304.175 167.215,304.389 167.429 C 305.700 168.740,305.998 180.083,304.791 182.744 C 304.356 183.703,304.000 184.673,304.000 184.899 C 304.000 185.125,303.325 186.060,302.500 186.977 C 299.771 190.009,298.800 191.190,298.800 191.479 C 298.800 191.636,297.738 192.781,296.441 194.024 C 295.143 195.266,293.788 196.849,293.430 197.542 C 293.072 198.234,292.544 198.800,292.255 198.800 C 291.967 198.800,291.027 199.732,290.166 200.872 C 289.304 202.011,287.494 204.036,286.142 205.372 C 284.790 206.707,283.308 208.553,282.847 209.474 C 282.387 210.394,281.686 211.384,281.289 211.674 C 279.398 213.053,278.636 215.032,276.465 224.200 C 273.783 235.528,273.647 240.133,275.865 244.510 C 277.982 248.689,278.245 252.850,276.531 255.079 C 274.155 258.169,274.079 258.394,274.659 260.600 C 274.948 261.700,275.188 262.968,275.192 263.419 C 275.200 264.250,277.151 266.291,279.484 267.909 C 283.926 270.991,291.036 267.267,292.164 261.269 L 292.666 258.600 290.900 256.055 C 288.079 251.988,287.246 247.714,288.645 244.487 C 289.052 243.549,289.413 241.006,289.624 237.600 C 290.015 231.283,290.810 227.455,292.366 224.400 C 292.982 223.190,293.602 221.717,293.744 221.127 C 294.134 219.502,296.813 215.210,297.868 214.519 C 298.380 214.183,298.802 213.704,298.804 213.454 C 298.806 213.204,299.727 212.190,300.850 211.200 C 301.974 210.210,303.138 209.130,303.438 208.800 C 306.244 205.710,308.406 203.600,308.765 203.600 C 309.004 203.600,309.200 203.375,309.200 203.100 C 309.201 202.825,309.668 202.060,310.240 201.400 C 310.811 200.740,311.709 199.355,312.234 198.322 C 312.760 197.290,313.446 196.300,313.758 196.122 C 314.659 195.611,317.200 191.603,317.200 190.695 C 317.200 190.241,317.692 189.044,318.293 188.035 C 321.569 182.533,321.589 173.391,318.345 164.132 C 317.715 162.335,317.199 160.625,317.198 160.332 C 317.192 158.923,316.256 156.802,314.791 154.876 C 313.903 153.707,312.845 152.135,312.441 151.381 C 310.531 147.818,306.656 143.600,305.291 143.600 C 305.130 143.600,304.521 143.096,303.940 142.479 C 302.563 141.021,294.697 138.000,292.276 138.000 C 291.848 138.000,290.396 137.467,289.049 136.815 C 282.886 133.832,270.638 133.655,267.579 136.505 C 264.117 139.731,251.200 139.831,251.200 136.632 C 251.200 135.395,247.447 133.603,243.954 133.173 C 242.109 132.945,239.250 132.587,237.600 132.376 C 234.576 131.989,216.770 131.154,213.800 131.260 C 212.920 131.291,209.590 131.459,206.400 131.633 M128.023 133.903 C 122.511 135.157,121.513 138.160,122.978 149.086 C 125.149 165.272,127.593 203.346,127.598 221.058 C 127.599 223.729,127.777 227.689,127.994 229.858 C 128.211 232.026,128.571 236.950,128.794 240.800 C 129.207 247.935,129.933 252.952,131.224 257.600 C 131.622 259.030,132.158 261.304,132.416 262.654 C 132.757 264.432,133.288 265.612,134.343 266.935 L 135.800 268.762 138.800 268.772 C 145.580 268.795,146.375 266.129,144.834 248.541 C 144.413 243.733,143.954 236.318,143.814 232.062 C 143.673 227.806,143.390 223.396,143.184 222.262 C 142.554 218.796,141.647 205.997,141.196 194.200 C 140.961 188.040,140.418 178.320,139.990 172.600 C 139.561 166.880,139.023 158.870,138.792 154.800 C 138.223 144.737,137.841 141.864,136.893 140.520 C 136.459 139.904,135.701 138.602,135.207 137.628 C 133.418 134.094,131.517 133.108,128.023 133.903 M84.298 134.611 C 83.443 135.192,82.697 136.086,82.545 136.711 C 82.400 137.310,81.876 138.727,81.380 139.861 L 80.479 141.922 81.468 146.661 C 82.631 152.229,83.556 161.521,83.592 168.000 C 83.615 172.294,84.255 181.810,85.177 191.600 C 85.395 193.910,85.579 197.613,85.587 199.829 C 85.594 202.045,86.055 206.905,86.611 210.629 C 87.167 214.353,87.795 220.460,88.007 224.200 C 88.220 227.940,88.665 234.510,88.998 238.800 C 89.330 243.090,89.698 248.130,89.815 250.000 C 90.451 260.128,91.110 263.470,92.767 264.970 C 93.225 265.385,93.600 265.897,93.600 266.108 C 93.600 266.609,96.868 269.562,97.447 269.584 C 97.692 269.593,98.862 269.221,100.047 268.757 C 106.621 266.184,106.588 266.323,105.037 247.600 C 104.199 237.487,103.749 233.807,103.014 231.056 C 101.443 225.177,100.991 219.086,100.012 190.600 C 99.793 184.220,99.438 177.380,99.223 175.400 C 99.008 173.420,98.635 168.740,98.395 165.000 C 98.117 160.685,97.613 156.738,97.017 154.200 C 96.499 152.000,95.870 148.490,95.619 146.400 C 94.897 140.395,93.960 136.289,93.092 135.323 C 91.463 133.510,86.508 133.109,84.298 134.611 M243.727 134.957 C 248.518 135.653,248.800 135.751,248.801 136.724 C 248.802 137.096,249.489 138.197,250.329 139.170 L 251.855 140.941 256.428 140.961 C 261.237 140.982,265.488 140.207,268.575 138.746 C 269.441 138.336,270.482 138.000,270.888 138.000 C 271.294 138.000,272.515 137.550,273.600 137.000 C 276.262 135.651,280.295 135.586,282.088 136.863 C 282.755 137.337,283.953 137.872,284.750 138.050 C 285.548 138.228,288.180 138.913,290.600 139.573 C 293.020 140.232,295.584 140.777,296.299 140.785 C 297.208 140.796,298.062 141.219,299.145 142.198 C 299.996 142.967,301.316 143.856,302.078 144.175 C 302.840 144.493,303.696 145.034,303.981 145.377 C 304.265 145.720,304.701 146.007,304.949 146.016 C 305.577 146.038,309.200 149.427,309.200 149.992 C 309.200 150.246,309.650 151.043,310.200 151.764 C 310.750 152.486,311.200 153.222,311.200 153.400 C 311.200 153.997,313.234 156.400,313.740 156.400 C 315.719 156.400,318.785 176.845,317.632 182.352 C 316.590 187.329,314.296 193.557,313.458 193.682 C 312.744 193.788,310.661 196.627,309.116 199.600 C 308.830 200.150,308.185 200.780,307.682 201.000 C 307.178 201.220,306.670 201.782,306.553 202.249 C 306.435 202.716,305.883 203.342,305.325 203.640 C 304.767 203.939,304.154 204.595,303.962 205.099 C 303.771 205.602,303.157 206.188,302.597 206.401 C 302.037 206.614,301.458 207.106,301.310 207.494 C 300.956 208.425,297.430 212.000,296.868 212.000 C 296.626 212.000,296.219 212.405,295.964 212.900 C 295.709 213.395,295.176 214.160,294.780 214.600 C 294.384 215.040,293.673 216.386,293.200 217.592 C 292.726 218.798,291.572 220.958,290.634 222.392 C 288.516 225.632,288.124 227.496,287.774 235.968 C 287.474 243.227,287.079 244.752,285.057 246.464 L 283.800 247.528 284.792 249.364 C 285.337 250.374,285.922 251.200,286.092 251.200 C 286.261 251.200,286.400 251.515,286.401 251.900 C 286.401 252.285,287.119 253.993,287.995 255.695 C 291.158 261.836,289.246 266.416,283.533 266.383 C 277.698 266.350,275.490 261.273,278.787 255.470 C 280.441 252.558,280.347 248.299,278.548 244.674 C 277.054 241.665,277.062 233.537,278.568 225.200 C 280.051 216.983,280.418 215.835,282.174 213.894 C 283.017 212.962,284.232 211.092,284.873 209.738 C 285.682 208.032,286.321 207.206,286.957 207.047 C 288.239 206.725,289.781 205.079,290.767 202.980 C 291.311 201.824,291.861 201.200,292.338 201.200 C 293.240 201.200,295.241 199.050,295.956 197.313 C 296.248 196.606,296.818 195.921,297.224 195.792 C 298.219 195.477,300.695 192.961,301.020 191.936 C 301.164 191.482,302.180 190.276,303.277 189.255 C 305.780 186.928,306.002 186.505,306.653 182.813 C 308.108 174.560,306.686 164.298,303.651 161.151 C 301.952 159.389,301.200 158.283,301.200 157.548 C 301.200 156.703,298.570 154.460,297.200 154.137 C 296.650 154.007,295.473 153.203,294.584 152.350 C 291.664 149.547,289.516 149.053,279.503 148.881 C 268.462 148.692,264.783 149.439,261.936 152.446 C 261.326 153.091,260.086 153.768,259.029 154.034 C 256.889 154.573,254.294 156.477,253.989 157.731 C 253.873 158.209,253.243 158.843,252.589 159.141 C 251.059 159.837,249.712 161.931,248.977 164.758 C 248.114 168.076,247.572 169.600,247.256 169.600 C 246.921 169.600,245.248 170.876,243.118 172.754 C 241.684 174.020,241.536 174.066,240.862 173.456 C 240.466 173.098,239.271 172.542,238.207 172.222 C 235.909 171.531,235.614 171.150,235.606 168.860 C 235.600 167.139,236.589 164.400,237.216 164.400 C 237.759 164.400,239.920 160.309,240.476 158.230 C 240.806 156.998,241.479 155.825,242.299 155.051 C 243.828 153.609,244.225 149.070,242.978 147.290 C 242.178 146.147,238.722 144.516,236.011 144.002 C 231.838 143.211,197.329 143.496,191.400 144.371 C 184.286 145.421,180.638 146.102,180.400 146.424 C 180.290 146.573,179.283 147.257,178.162 147.944 C 174.855 149.970,173.620 152.347,174.289 155.400 C 174.979 158.547,175.879 169.827,176.395 181.800 C 176.826 191.781,177.056 193.070,178.739 194.900 L 179.750 196.000 188.975 195.993 C 195.578 195.988,198.996 195.818,201.000 195.393 C 206.160 194.300,213.372 194.877,215.139 196.525 C 216.226 197.539,216.103 202.427,214.961 203.600 C 214.192 204.389,208.397 205.061,198.000 205.566 C 181.772 206.354,181.416 206.410,179.697 208.444 C 177.385 211.181,177.104 214.034,178.195 223.717 C 179.192 232.563,179.577 234.877,180.569 238.000 C 181.596 241.229,182.183 246.865,182.613 257.623 L 182.862 263.847 181.742 265.123 C 180.695 266.316,180.449 266.400,177.986 266.400 C 173.623 266.400,173.105 265.480,172.424 256.512 C 172.134 252.685,171.813 251.064,170.887 248.738 C 169.342 244.861,168.865 241.326,168.390 230.235 C 168.172 225.156,167.815 219.124,167.597 216.831 C 167.379 214.537,167.196 207.697,167.192 201.631 C 167.180 186.243,166.727 180.049,165.230 174.800 C 163.919 170.201,162.396 145.960,163.001 139.322 C 163.363 135.361,163.323 135.382,170.362 135.489 C 173.573 135.538,180.250 135.310,185.200 134.981 C 202.203 133.854,236.033 133.840,243.727 134.957 M90.636 135.827 C 92.305 136.077,93.186 139.575,93.626 147.699 C 93.801 150.943,94.038 153.913,94.152 154.299 C 94.266 154.684,94.554 157.520,94.791 160.600 C 95.374 168.158,95.932 171.851,96.815 174.000 C 98.215 177.403,98.475 181.107,98.800 202.200 C 98.976 213.640,99.327 224.800,99.581 227.000 C 100.313 233.339,101.496 239.685,102.213 241.114 C 103.811 244.298,104.698 263.685,103.300 264.869 C 101.442 266.442,96.000 267.022,96.000 265.647 C 96.000 265.469,95.665 264.936,95.255 264.464 C 94.846 263.991,94.285 262.479,94.010 261.102 C 93.734 259.726,93.163 257.160,92.740 255.400 C 91.714 251.127,90.967 242.580,90.203 226.400 C 89.856 219.030,89.321 210.030,89.016 206.400 C 88.710 202.770,88.335 197.391,88.182 194.446 C 87.976 190.474,87.654 188.306,86.934 186.046 C 86.040 183.238,85.920 181.860,85.395 168.400 C 85.083 160.370,84.729 153.170,84.610 152.400 C 83.809 147.239,83.659 141.921,84.235 139.120 C 85.066 135.074,85.189 135.011,90.636 135.827 M132.300 136.317 C 132.575 136.667,132.801 137.414,132.801 137.976 C 132.802 138.539,133.194 139.630,133.672 140.400 C 137.163 146.023,137.247 146.977,138.410 193.832 C 138.939 215.115,139.260 218.930,141.403 229.400 C 141.718 230.940,142.082 234.720,142.213 237.800 C 142.343 240.880,142.707 245.470,143.022 248.000 C 143.935 255.349,143.810 264.025,142.771 265.346 C 141.535 266.917,136.236 266.956,135.527 265.400 C 135.277 264.850,134.944 264.400,134.787 264.400 C 134.631 264.400,134.386 263.275,134.243 261.900 C 133.808 257.726,132.783 251.084,132.344 249.600 C 130.478 243.296,130.576 244.743,129.255 203.798 C 128.019 165.490,127.280 153.976,125.895 151.411 C 124.166 148.210,124.197 138.043,125.941 136.299 C 127.028 135.212,131.441 135.224,132.300 136.317 M57.288 359.813 C 57.886 360.443,58.447 360.877,58.535 360.779 C 58.623 360.680,58.133 360.165,57.447 359.634 L 56.200 358.669 57.288 359.813 M343.007 359.989 C 342.875 360.203,342.053 360.592,341.181 360.853 C 340.308 361.114,339.674 361.407,339.771 361.504 C 340.071 361.804,342.710 360.790,343.217 360.180 C 343.482 359.861,343.597 359.600,343.473 359.600 C 343.349 359.600,343.139 359.775,343.007 359.989 M59.400 361.200 C 59.536 361.420,60.042 361.587,60.524 361.572 C 61.369 361.545,61.371 361.531,60.600 361.200 C 59.499 360.727,59.108 360.727,59.400 361.200 " stroke="none" fill="#7cb4d4" fill-rule="evenodd"></path><path id="path4" d="M201.405 128.473 C 196.651 128.830,194.493 129.221,188.902 130.736 C 184.735 131.865,176.057 132.521,172.353 131.986 C 164.340 130.829,159.651 132.729,159.050 137.374 C 158.910 138.460,158.526 139.758,158.198 140.260 C 157.436 141.421,157.444 142.329,158.230 144.210 C 158.672 145.268,158.965 147.993,159.213 153.359 C 159.407 157.561,159.753 164.375,159.983 168.500 C 160.990 186.613,161.193 191.345,161.196 196.838 C 161.203 207.859,161.897 215.101,163.165 217.400 C 164.487 219.796,164.953 224.110,165.585 239.800 C 166.195 254.951,167.248 263.278,168.708 264.489 C 169.024 264.752,169.444 265.389,169.640 265.905 C 171.103 269.754,174.819 272.583,177.933 272.218 C 181.300 271.824,181.397 271.768,183.601 268.999 C 186.185 265.752,186.349 264.042,185.431 250.000 C 185.079 244.610,184.601 235.880,184.369 230.600 C 184.137 225.320,183.719 219.429,183.440 217.509 L 182.932 214.019 184.458 213.009 C 185.807 212.116,186.410 211.998,189.691 211.985 C 201.876 211.935,209.389 210.834,214.800 208.306 C 216.895 207.327,219.600 205.312,219.600 204.731 C 219.600 204.509,219.959 204.029,220.397 203.664 C 222.005 202.325,221.976 197.692,220.349 195.867 C 215.992 190.979,214.393 189.649,212.482 189.322 C 208.673 188.671,201.994 188.936,199.200 189.851 C 192.676 191.986,184.585 191.905,181.763 189.677 L 180.526 188.700 180.270 177.450 C 180.129 171.263,179.824 163.273,179.593 159.695 C 179.028 150.984,178.618 151.497,186.636 150.886 C 189.978 150.631,193.137 150.252,193.656 150.044 C 195.781 149.191,196.302 149.031,198.600 148.528 C 204.248 147.292,206.843 147.126,218.418 147.262 C 228.370 147.378,230.390 147.500,231.218 148.035 C 231.758 148.384,233.053 148.958,234.095 149.309 C 236.143 150.000,238.000 151.679,238.000 152.840 C 238.000 153.945,235.571 158.788,234.813 159.193 C 233.709 159.784,232.823 162.393,232.488 166.038 C 231.814 173.390,233.451 176.699,238.600 178.397 C 240.140 178.905,241.502 179.374,241.627 179.439 C 243.575 180.454,251.194 173.218,251.199 170.349 C 251.202 168.027,252.949 164.495,254.733 163.202 C 255.672 162.522,256.912 161.185,257.488 160.231 C 258.553 158.468,261.368 156.980,265.101 156.206 C 265.817 156.057,267.167 155.233,268.101 154.374 C 272.075 150.719,284.562 150.467,288.314 153.965 C 289.204 154.796,290.533 155.704,291.267 155.982 C 296.178 157.850,296.863 158.451,299.200 162.937 C 300.410 165.260,301.841 167.625,302.380 168.192 C 304.647 170.575,304.521 182.800,302.230 182.800 C 301.928 182.800,301.286 183.558,300.802 184.485 C 299.532 186.923,297.109 189.793,290.374 196.841 C 289.149 198.122,287.709 200.060,287.174 201.148 C 286.449 202.621,285.800 203.314,284.633 203.863 C 283.479 204.406,282.795 205.130,282.033 206.614 C 281.465 207.722,280.307 209.258,279.459 210.029 C 278.176 211.196,277.671 212.165,276.441 215.815 C 275.629 218.227,274.462 221.223,273.849 222.473 C 271.201 227.864,270.848 242.749,273.280 246.400 C 274.553 248.310,275.355 252.903,274.516 253.475 C 274.122 253.744,273.513 254.244,273.162 254.586 C 270.733 256.959,271.563 266.059,274.302 267.089 C 274.686 267.234,275.810 268.113,276.800 269.043 C 280.482 272.503,280.555 272.538,283.644 272.251 C 286.601 271.976,287.871 271.436,288.231 270.301 C 288.354 269.915,288.616 269.600,288.813 269.600 C 289.011 269.600,289.787 269.060,290.539 268.400 C 291.291 267.740,292.104 267.200,292.347 267.200 C 295.864 267.200,295.933 254.921,292.421 253.807 C 290.883 253.318,290.028 246.019,291.165 243.074 C 291.404 242.455,291.600 240.544,291.600 238.827 C 291.600 236.706,291.844 235.081,292.363 233.753 C 292.783 232.679,293.521 230.450,294.004 228.800 C 294.486 227.150,295.133 225.121,295.441 224.292 C 295.748 223.462,296.000 222.326,296.000 221.766 C 296.000 220.347,296.640 219.287,298.765 217.187 C 299.774 216.189,300.960 214.763,301.400 214.016 C 301.840 213.269,302.920 212.266,303.800 211.786 C 304.680 211.306,305.702 210.328,306.070 209.614 C 306.882 208.040,308.373 206.400,308.991 206.400 C 309.604 206.400,312.000 203.889,312.000 203.246 C 312.000 202.635,314.069 199.676,315.901 197.668 C 316.616 196.884,317.566 195.242,318.011 194.021 C 319.215 190.718,319.664 189.920,321.063 188.600 C 324.414 185.437,323.522 162.000,320.050 162.000 C 319.894 162.000,319.466 161.055,319.100 159.900 C 318.734 158.745,318.067 156.630,317.618 155.200 C 317.031 153.330,316.295 152.056,314.999 150.664 C 314.007 149.599,312.702 147.709,312.098 146.464 C 311.324 144.869,310.624 144.023,309.729 143.600 C 308.507 143.023,307.754 142.404,305.613 140.217 C 304.424 139.002,302.414 138.000,301.167 138.000 C 300.110 138.000,293.897 136.388,293.600 136.037 C 293.330 135.718,291.317 134.565,289.600 133.747 C 287.628 132.808,280.813 132.308,274.200 132.617 C 268.212 132.897,266.897 133.243,264.504 135.162 C 263.103 136.286,259.443 137.471,258.000 137.267 C 255.452 136.908,253.818 136.133,252.339 134.581 C 251.445 133.644,250.329 132.792,249.857 132.687 C 241.314 130.799,239.361 130.296,238.096 129.657 C 235.142 128.165,214.417 127.497,201.405 128.473 M225.000 131.597 C 230.280 131.814,235.950 132.164,237.600 132.376 C 239.250 132.587,242.109 132.945,243.954 133.173 C 247.447 133.603,251.200 135.395,251.200 136.632 C 251.200 139.831,264.117 139.731,267.579 136.505 C 270.638 133.655,282.886 133.832,289.049 136.815 C 290.396 137.467,291.848 138.000,292.276 138.000 C 294.697 138.000,302.563 141.021,303.940 142.479 C 304.521 143.096,305.130 143.600,305.291 143.600 C 306.656 143.600,310.531 147.818,312.441 151.381 C 312.845 152.135,313.903 153.707,314.791 154.876 C 316.256 156.802,317.192 158.923,317.198 160.332 C 317.199 160.625,317.715 162.335,318.345 164.132 C 321.589 173.391,321.569 182.533,318.293 188.035 C 317.692 189.044,317.200 190.241,317.200 190.695 C 317.200 191.603,314.659 195.611,313.758 196.122 C 313.446 196.300,312.760 197.290,312.234 198.322 C 311.709 199.355,310.811 200.740,310.240 201.400 C 309.668 202.060,309.201 202.825,309.200 203.100 C 309.200 203.375,309.004 203.600,308.765 203.600 C 308.406 203.600,306.244 205.710,303.438 208.800 C 303.138 209.130,301.974 210.210,300.850 211.200 C 299.727 212.190,298.806 213.204,298.804 213.454 C 298.802 213.704,298.380 214.183,297.868 214.519 C 296.813 215.210,294.134 219.502,293.744 221.127 C 293.602 221.717,292.982 223.190,292.366 224.400 C 290.810 227.455,290.015 231.283,289.624 237.600 C 289.413 241.006,289.052 243.549,288.645 244.487 C 287.246 247.714,288.079 251.988,290.900 256.055 L 292.666 258.600 292.164 261.269 C 291.036 267.267,283.926 270.991,279.484 267.909 C 277.151 266.291,275.200 264.250,275.192 263.419 C 275.188 262.968,274.948 261.700,274.659 260.600 C 274.079 258.394,274.155 258.169,276.531 255.079 C 278.245 252.850,277.982 248.689,275.865 244.510 C 273.647 240.133,273.783 235.528,276.465 224.200 C 278.636 215.032,279.398 213.053,281.289 211.674 C 281.686 211.384,282.387 210.394,282.847 209.474 C 283.308 208.553,284.790 206.707,286.142 205.372 C 287.494 204.036,289.304 202.011,290.166 200.872 C 291.027 199.732,291.967 198.800,292.255 198.800 C 292.544 198.800,293.072 198.234,293.430 197.542 C 293.788 196.849,295.143 195.266,296.441 194.024 C 297.738 192.781,298.800 191.636,298.800 191.479 C 298.800 191.190,299.771 190.009,302.500 186.977 C 303.325 186.060,304.000 185.125,304.000 184.899 C 304.000 184.673,304.356 183.703,304.791 182.744 C 305.998 180.083,305.700 168.740,304.389 167.429 C 304.175 167.215,304.000 166.654,304.000 166.182 C 304.000 165.710,303.539 164.801,302.976 164.162 C 302.412 163.523,301.578 162.280,301.121 161.400 C 299.710 158.682,297.991 156.400,297.353 156.400 C 297.018 156.400,295.959 155.860,295.000 155.200 C 294.041 154.540,293.108 153.997,292.928 153.994 C 292.748 153.990,292.004 153.462,291.276 152.820 C 287.190 149.218,270.914 149.108,265.985 152.649 C 264.951 153.392,263.999 154.000,263.870 154.000 C 263.670 154.000,260.435 155.434,257.300 156.911 C 256.805 157.144,256.395 157.530,256.389 157.768 C 256.375 158.318,253.916 160.975,252.654 161.801 C 252.014 162.221,251.337 163.462,250.627 165.516 C 250.041 167.212,249.412 168.960,249.230 169.400 C 249.048 169.840,248.701 170.695,248.458 171.300 C 248.216 171.905,247.855 172.400,247.657 172.400 C 247.459 172.400,246.362 173.292,245.218 174.383 C 242.428 177.043,242.013 177.125,239.066 175.594 C 233.175 172.533,232.134 166.180,236.707 161.200 C 237.212 160.650,237.732 159.750,237.864 159.200 C 237.995 158.650,238.736 156.977,239.510 155.483 C 241.445 151.746,240.193 148.089,236.438 146.510 C 232.616 144.903,197.289 144.979,193.440 146.602 C 191.529 147.409,184.397 148.800,182.172 148.800 C 179.474 148.800,176.650 151.776,176.927 154.330 C 177.038 155.358,177.327 161.960,177.569 169.000 C 178.355 191.891,178.568 193.068,182.040 193.724 C 185.335 194.346,198.003 193.697,201.069 192.748 C 209.854 190.030,218.000 193.527,218.000 200.017 L 218.000 203.132 216.210 204.708 C 214.615 206.112,214.125 206.311,211.710 206.537 C 210.219 206.676,208.010 207.076,206.800 207.424 C 205.465 207.809,200.749 208.300,194.800 208.673 C 180.937 209.542,179.054 210.645,180.238 217.200 C 181.523 224.312,181.523 224.315,182.986 242.400 C 184.372 259.538,184.573 263.640,184.063 264.333 C 183.792 264.700,183.369 265.466,183.122 266.036 C 181.934 268.778,176.286 269.908,173.970 267.867 C 171.945 266.082,170.452 261.978,169.580 255.800 C 169.394 254.480,168.860 251.690,168.393 249.600 C 167.717 246.573,167.474 243.602,167.199 235.000 C 167.000 228.794,166.574 222.413,166.197 220.000 C 164.570 209.569,164.415 207.880,164.402 200.400 C 164.389 192.423,163.684 182.529,162.622 175.400 C 162.294 173.200,162.020 169.233,162.013 166.585 C 162.006 163.936,161.696 157.546,161.325 152.385 C 160.018 134.203,161.267 132.036,172.116 133.660 C 174.143 133.963,176.630 133.911,181.916 133.454 C 195.168 132.308,206.744 131.511,213.800 131.260 C 214.680 131.228,219.720 131.380,225.000 131.597 M129.200 131.894 C 124.779 132.230,123.208 132.844,121.901 134.744 L 120.645 136.570 120.644 142.185 C 120.644 145.273,120.957 152.570,121.339 158.400 C 121.721 164.230,122.204 172.780,122.412 177.400 C 123.144 193.691,123.562 200.667,124.187 207.078 C 124.535 210.641,124.978 216.221,125.173 219.478 C 125.368 222.735,125.813 228.460,126.163 232.200 C 126.512 235.940,126.994 243.050,127.233 248.000 C 127.731 258.298,128.186 260.605,130.533 264.735 C 131.450 266.350,132.405 268.032,132.656 268.473 C 135.180 272.919,140.406 273.966,143.727 270.693 C 147.775 266.702,148.568 263.058,147.272 254.400 C 147.058 252.970,146.683 246.040,146.439 239.000 C 146.196 231.960,145.811 223.950,145.584 221.200 C 145.357 218.450,145.006 209.720,144.804 201.800 C 144.337 183.507,143.431 171.889,142.198 168.394 C 141.570 166.615,140.800 158.550,140.799 153.731 C 140.795 144.435,139.149 136.569,137.037 135.759 C 136.707 135.632,136.089 134.940,135.665 134.220 C 135.240 133.500,134.467 132.813,133.946 132.694 C 133.426 132.575,132.460 132.322,131.800 132.132 C 131.140 131.943,129.970 131.836,129.200 131.894 M83.685 132.503 C 82.314 132.942,79.873 135.559,78.555 138.000 C 77.009 140.866,77.593 147.701,79.803 152.600 C 81.735 156.882,81.957 160.000,82.799 194.600 C 83.252 213.218,83.446 215.294,85.647 225.000 C 86.475 228.651,86.792 231.876,87.203 240.800 C 88.429 267.397,87.867 264.660,93.133 269.700 C 100.760 276.999,110.112 268.393,107.586 256.400 C 107.377 255.410,106.951 248.930,106.638 242.000 C 106.065 229.325,104.986 221.008,103.366 216.800 C 102.538 214.651,102.067 207.007,101.602 188.200 C 100.765 154.352,100.548 151.797,97.976 145.600 C 97.566 144.610,96.934 141.790,96.572 139.334 C 95.586 132.629,90.954 130.174,83.685 132.503 M133.455 135.119 C 133.925 135.524,134.714 136.653,135.207 137.628 C 135.701 138.602,136.459 139.904,136.893 140.520 C 137.841 141.864,138.223 144.737,138.792 154.800 C 139.023 158.870,139.561 166.880,139.990 172.600 C 140.418 178.320,140.961 188.040,141.196 194.200 C 141.647 205.997,142.554 218.796,143.184 222.262 C 143.390 223.396,143.673 227.806,143.814 232.062 C 143.954 236.318,144.413 243.733,144.834 248.541 C 146.375 266.129,145.580 268.795,138.800 268.772 L 135.800 268.762 134.343 266.935 C 133.288 265.612,132.757 264.432,132.416 262.654 C 132.158 261.304,131.622 259.030,131.224 257.600 C 129.933 252.952,129.207 247.935,128.794 240.800 C 128.571 236.950,128.211 232.026,127.994 229.858 C 127.777 227.689,127.599 223.729,127.598 221.058 C 127.593 203.346,125.149 165.272,122.978 149.086 C 121.950 141.416,122.423 136.725,124.371 135.285 C 127.205 133.190,131.129 133.118,133.455 135.119 M90.332 134.023 C 93.664 134.737,94.434 136.540,95.619 146.400 C 95.870 148.490,96.499 152.000,97.017 154.200 C 97.613 156.738,98.117 160.685,98.395 165.000 C 98.635 168.740,99.008 173.420,99.223 175.400 C 99.438 177.380,99.793 184.220,100.012 190.600 C 100.991 219.086,101.443 225.177,103.014 231.056 C 103.943 234.533,105.299 248.001,105.874 259.468 C 106.115 264.264,105.342 266.433,103.000 267.537 C 101.317 268.330,97.874 269.599,97.447 269.584 C 96.868 269.562,93.600 266.609,93.600 266.108 C 93.600 265.897,93.225 265.385,92.767 264.970 C 91.110 263.470,90.451 260.128,89.815 250.000 C 89.698 248.130,89.330 243.090,88.998 238.800 C 88.665 234.510,88.220 227.940,88.007 224.200 C 87.795 220.460,87.167 214.353,86.611 210.629 C 86.055 206.905,85.594 202.045,85.587 199.829 C 85.579 197.613,85.395 193.910,85.177 191.600 C 84.255 181.810,83.615 172.294,83.592 168.000 C 83.556 161.521,82.631 152.229,81.468 146.661 L 80.479 141.922 81.380 139.861 C 81.876 138.727,82.400 137.310,82.545 136.711 C 83.144 134.245,86.296 133.157,90.332 134.023 " stroke="none" fill="#98cadd" fill-rule="evenodd"></path></g></svg>